<svg xmlns="http://www.w3.org/2000/svg" width="1024" height="1024" viewBox="0 0 1024 1024">
  <defs>
    <linearGradient id="paper" x1="0" y1="0" x2="1" y2="1">
      <stop offset="0" stop-color="#FFFFFF"/>
      <stop offset="1" stop-color="#E8E4DB"/>
    </linearGradient>
  </defs>
  <path fill="url(#paper)" d="M324 163c-29 0-53 24-53 53v520c0 29 24 53 53 53h376c29 0 53-24 53-53V337L579 163H324Z"/>
  <path fill="#D8D5CD" d="M579 163v121c0 29 24 53 53 53h121L579 163Z"/>
  <path fill="none" stroke="#FFFFFF" stroke-opacity=".78" stroke-width="10" d="M324 168h248l176 176v390c0 27-22 49-49 49H325c-27 0-49-22-49-49V217c0-27 21-49 48-49Z"/>
</svg>
